<?xml version="1.0" encoding="UTF-8" standalone="no"?>
<svg
   width="1929.1036"
   height="445.20734"
   viewBox="0 0 1929.1036 445.20734"
   version="1.1"
   id="svg4"
   sodipodi:docname="pdf2md_icon.svg"
   inkscape:version="1.1.2 (b8e25be833, 2022-02-05)"
   xmlns:inkscape="http://www.inkscape.org/namespaces/inkscape"
   xmlns:sodipodi="http://sodipodi.sourceforge.net/DTD/sodipodi-0.dtd"
   xmlns="http://www.w3.org/2000/svg"
   xmlns:svg="http://www.w3.org/2000/svg">
  <defs
     id="defs8" />
  <sodipodi:namedview
     id="namedview6"
     pagecolor="#505050"
     bordercolor="#eeeeee"
     borderopacity="1"
     inkscape:pageshadow="0"
     inkscape:pageopacity="0"
     inkscape:pagecheckerboard="0"
     showgrid="false"
     inkscape:zoom="0.41113281"
     inkscape:cx="1016.7031"
     inkscape:cy="199.44893"
     inkscape:window-width="1920"
     inkscape:window-height="1046"
     inkscape:window-x="-11"
     inkscape:window-y="-11"
     inkscape:window-maximized="1"
     inkscape:current-layer="svg4" />
  <path
     d="m 172.24298,1.4333935 c -48.882,7.545 -93.825997,31.8080005 -122.456997,66.1100005 -29.689,35.567996 -46.7560004,80.114996 -49.5430004,129.306996 -1.66,29.305 5.32,65.583 16.8230004,87.433 4.609,8.754 6.669,10.706 9.427,8.929 2.145,-1.381 1.96,-2.523 -2.235,-13.862 -3.83,-10.351 -7.885,-27.752 -9.671,-41.5 -1.835,-14.136 -1.572,-48.13 0.477,-61.541 5.74,-37.566 17.634,-67.538 37.484,-94.458996 7.679,-10.414 26.941,-29.178 38.243,-37.255 18.826997,-13.455 46.918997,-25.673 70.951997,-30.86 12.091,-2.61 43.765,-3.715 56.165,-1.96 52.148,7.38 102.363,41.874 121.231,83.278 8.152,17.886996 13.321,38.685996 14.24,57.296996 0.722,14.619 -0.284,22.253 -6.126,46.5 -2.452,10.175 -4.886,23.225 -5.409,29 -1.564,17.256 1.016,33.178 4.664,28.784 0.601,-0.725 1.827,-5.585 2.724,-10.801 2.176,-12.65 5.545,-25.797 11.056,-43.146 7.849,-24.712 9.553,-32.832 10.146,-48.337 0.414,-10.835 0.142,-16.147 -1.205,-23.5 -0.957,-5.225 -1.959,-10.738 -2.226,-12.25 -0.605,-3.419 1.778,-3.705 6.24,-0.75 4.063,2.691 8.5,2.682 8.5,-0.017 0,-1.109 -2.438,-6.846 -5.418,-12.75 -27.536,-54.552996 -85.344,-94.570996 -149.862,-103.7429965 -12.851,-1.827 -42.105,-1.777 -54.22,0.093 m 67,50.4280005 c -11.459,1.834 -20.663,6.984 -28.788,16.105 l -5.227,5.868 -3.493,-4.706 c -4.381,-5.904 -11.855,-11.625 -18.992,-14.535 -4.598,-1.875 -7.386,-2.243 -17,-2.243 -10.982,0 -11.826,0.153 -18.73,3.389 -18.788,8.806 -29.279,30.478 -24.953,51.545996 2.028,9.877 5.445,16.972 11.321,23.507 l 4.547,5.058 -11.842,0.022 c -9.454,0.017 -12.685,0.404 -16.015,1.916 -7.413,3.366 -7.782,4.645 -8.165,28.259 l -0.338,20.791 -3.161997,0.819 -3.163,0.819 -0.269,21.998 -0.268,21.999 3.268,1.439 3.268997,1.438 0.5,75.177 c 0.492,73.973 0.533,75.222 2.562,77.938 4.951,6.631 0.818,6.225 66.938,6.571 l 60,0.314 3.807,-2.25 c 4.703,-2.779 8.11,-2.854 11.42,-0.25 2.393,1.882 4.054,2 28.158,1.996 23.796,-0.003 25.846,-0.145 28.874,-1.991 1.793,-1.093 4.153,-3.453 5.246,-5.246 1.954,-3.204 1.988,-5.281 1.991,-122.974 l 0.004,-119.715 -3.091,-3.521 c -2.959,-3.37 -8.774,-5.879 -12.714,-5.487 -0.932,0.092 -6.225,0.116 -11.761,0.053 l -10.066,-0.115 4.91,-5.094 c 2.868,-2.976 6.431,-8.279 8.566,-12.75 3.552,-7.439 3.656,-7.982 3.656,-19.155996 0,-8.575 -0.467,-12.838 -1.835,-16.763 -7.098,-20.363 -28.518,-33.531 -49.165,-30.226 m -79.5,16.35 c -19.036,4.334 -29.327,20.927 -24.597,39.660996 2.979,11.797 12.555,22.267 22.934,25.074 2.29,0.619 7.313,0.922 11.163,0.673 12.58,-0.814 22.771,-7.635 27.863,-18.647 3.109,-6.724 3.009,-21.555996 -0.193,-28.621996 -6.194,-13.669 -22.293,-21.526 -37.17,-18.139 m 79.217,-0.269 c -9.374,1.598 -18.143,7.033 -23.194,14.375 -8.323,12.097 -7.204,28.553996 2.69,39.558996 5.441,6.052 11.722,9.453 20.408,11.05 15.26,2.806 29.99,-6.078 36.172,-21.815 2.288,-5.826 2.39,-16.688996 0.217,-23.229996 -4.78,-14.394 -19.947,-22.726 -36.293,-19.939 m -0.033,11.979 c -5.524,1.084 -10.513,4.183 -13.916,8.644 -3.442,4.513 -4.381,14.230996 -1.849,19.128996 2.457,4.751 3.581,3.829 3.581,-2.94 0,-3.847 0.603,-7.115996 1.636,-8.863996 2.819,-4.773 11.873,-8.728 9.399,-4.106 -1.702,3.18 -1.209,10.047996 0.974,13.579996 2.64,4.272 6.768,5.909 13.025,5.168 2.731,-0.323 4.966,-0.354 4.966,-0.069 0,3.287 -7.636,8.24 -13,8.433 -2.407,0.086 -2.422,0.127 -0.41,1.103 5.164,2.505 15.538,-3.65 19.32,-11.464 7.522,-15.536996 -6.176,-32.056996 -23.726,-28.613996 m -81.98,4 c -11.268,5.727 -14.28,20.077996 -6.156,29.330996 1.63,1.857 4.492,4.101 6.359,4.987 3.712,1.761 14.593,2.217 14.593,0.611 0,-0.55 -2.069,-1 -4.599,-1 -8.162,0 -14.401,-4.744 -14.401,-10.95 0,-3.003 1.558,-2.542 7.043,2.083 4.559,3.845 5.226,4.097 9.544,3.61 8.504,-0.958 14.232,-7.934 12.915,-15.727996 -2.033,-12.038 -14.516,-18.424 -25.298,-12.944 m 84.155,9.479 c -1.97,1.97 -2.405,3.165 -1.912,5.25 1.478,6.249996 9.044,8.137996 12.731,3.175996 1.59,-2.139996 1.703,-3.017996 0.744,-5.770996 -1.976,-5.666 -7.324,-6.894 -11.563,-2.655 m -81.704,0.279 c -2.427,2.681 -2.129,7.724996 0.568,9.613996 6.902,4.835 14.844,-2.274 9.761,-8.735996 -2.568,-3.265 -7.769,-3.707 -10.329,-0.878 m -102.085997,4.272 c -7.502,8.914996 -14.957,31.024996 -16.554,49.091996 -1.738,19.673 0.957,34.59 10.828,59.931 10.732,27.548 11.327,33.535 5.52,55.572 -5.28,20.038 -6.285,25.741 -6.326,35.894 -0.066,16.365 4.965,30.147 16.862,46.193 4.154,5.603 6.74,8.217 8.128,8.217 3.507,0 3.185,-2.364 -1.442,-10.559 -2.466,-4.368 -5.907,-12.21 -7.647,-17.428 -2.678,-8.025 -3.162,-10.952 -3.146,-19 0.021,-10.184 1.071,-15.826 6.885,-37.013 3.573,-13.018 3.706,-14.089 3.721,-30 0.018,-18.806 -0.748,-22.038 -10.898,-46 -11.881,-28.048 -14.631,-44.521 -10.952,-65.615 1.409,-8.082 7.27,-25.095 9.688,-28.121996 1.101,-1.38 0.347,-4.263 -1.116,-4.263 -0.518,0 -2.116,1.395 -3.551,3.101 M 380.39798,140.67939 c -2.179,2.408 -2.074,7.585 0.382,18.671 6.851,30.938 6.609,67.081 -0.646,96.405 -6.34,25.625 -18.635,53.709 -33.282,76.021 -14.756,22.478 -4.262,15.839 13.905,-8.797 19.031,-25.807 31.804,-57.391 36.46,-90.149 3.081,-21.679 1.654,-53.568 -3.357,-75 -2.509,-10.731 -3.717,-13.911 -6.358,-16.73 -2.554,-2.727 -4.892,-2.865 -7.104,-0.421 m -149.845,6.921 -0.31,3.75 h -25.463 -25.462 l -0.945,-3.293 c -0.635,-2.216 -1.465,-3.186 -2.537,-2.966 -1.274,0.262 -1.533,1.452 -1.295,5.954 0.202,3.796 -0.124,5.9 -1,6.466 -0.714,0.461 -13.673,1.064 -28.798,1.339 l -27.5,0.5 -0.254,109.255 -0.255,109.256 89.755,-0.256 89.754,-0.255 v -109 -109 l -29.202,-0.5 c -20.599,-0.353 -29.551,-0.849 -30.386,-1.686 -0.652,-0.653 -1.158,-3.128 -1.126,-5.5 0.082,-5.918 -0.596,-7.814 -2.793,-7.814 -1.442,0 -1.944,0.862 -2.183,3.75 m -51.418,11.824 c -0.355,1.415 -0.148,3.665 0.46,5 l 1.105,2.426 h 24.546 24.547 l 0.874,-2.301 c 0.481,-1.265 0.643,-3.515 0.359,-5 l -0.516,-2.699 h -25.365 -25.364 l -0.646,2.574 m -15.506,12.54 c -1.786,1.786 -2.043,2.978 -1.654,7.666 0.628,7.582 2.366,8.838 13.518,9.777 4.812,0.405 21.966,0.466 38.118,0.137 25.594,-0.521 29.608,-0.815 31.231,-2.283 3.494,-3.163 3.64,-12.529 0.248,-15.921 -2.048,-2.048 -5.653,-1.866 -10.086,0.51 -3.469,1.859 -5.642,2 -30.861,2 -25.616,0 -27.272,-0.112 -29.673,-2 -3.334,-2.623 -8.155,-2.572 -10.841,0.114 m -57.684,36.136 c 0.268,5.614 0.527,6.283 2.548,6.57 2.137,0.303 2.25,-0.01 2.25,-6.25 0,-6.374 -0.076,-6.57 -2.548,-6.57 -2.49,0 -2.541,0.141 -2.25,6.25 m 30.915,5.75 c 0.063,5.775 0.34,9.6 0.615,8.5 0.776,-3.106 2.076,-3.468 12.518,-3.485 13.377,-0.021 12.547,-1.873 -1,-2.231 l -10.75,-0.284 -0.313,-4.5 c -0.252,-3.619 -0.066,-4.255 0.95,-3.25 0.929,0.92 6.776,1.25 22.126,1.25 h 20.864 l -0.314,-3.25 -0.313,-3.25 h -22.249 -22.249 l 0.115,10.5 m 106.133,-9.272 c -25.065,0.259 -29.25,0.515 -29.25,1.787 0,1.283 4.433,1.485 32.573,1.485 30.482,0 32.552,-0.112 32.242,-1.75 -0.388,-2.049 2.683,-1.918 -35.565,-1.522 m -56.554,0.909 c -1.975,1.975 0.408,2.399 12.054,2.143 7.861,-0.173 12.655,-0.663 12.503,-1.28 -0.28,-1.137 -23.468,-1.951 -24.557,-0.863 m -0.071,12.161 c -0.271,0.439 -0.149,1.353 0.271,2.033 0.553,0.896 4.039,1.158 12.671,0.952 10.415,-0.247 11.951,-0.503 12.244,-2.033 0.305,-1.591 -0.799,-1.75 -12.179,-1.75 -6.883,0 -12.736,0.359 -13.007,0.798 m 49.625,-0.065 c -18.846,0.259 -22.25,0.532 -22.25,1.786 0,1.278 4.473,1.481 32.573,1.481 30.484,0 32.552,-0.112 32.239,-1.75 -0.38,-1.985 -2.633,-2.065 -42.562,-1.517 m -99.252,10.017 c 0.001,0.92 2.758,1.25 10.443,1.25 14.169,0 14.641,-1.788 0.577,-2.187 -8.319,-0.236 -11.022,-0.006 -11.02,0.937 m 51.002,3.281 c 0,1.945 0.513,2.019 12.238,1.75 10.729,-0.246 12.279,-0.497 12.573,-2.031 0.305,-1.592 -0.802,-1.75 -12.238,-1.75 -11.97,0 -12.573,0.097 -12.573,2.031 m 27,0.356 c 0,1.128 4.721,1.518 25.25,2.085 32.099,0.887 38.117,0.618 38.563,-1.722 0.312,-1.637 -1.733,-1.75 -31.74,-1.75 -26.682,0 -32.073,0.233 -32.073,1.387 m -77.333,5.28 c -1.888,1.887 0.203,2.38 9.002,2.119 6.633,-0.196 9.799,-0.678 10.083,-1.536 0.312,-0.941 -1.914,-1.25 -9.002,-1.25 -5.179,0 -9.717,0.3 -10.083,0.667 m 108.083,6.095 c -26.414,0.229 -30.75,0.476 -30.75,1.752 0,1.284 4.369,1.486 32.073,1.486 29.402,0 32.047,-0.139 31.75,-1.667 -0.178,-0.917 -0.773,-1.706 -1.323,-1.753 -0.55,-0.047 -14.837,0.035 -31.75,0.182 m -106.5,2.894 c -0.687,0.281 -1.25,1.154 -1.25,1.94 0,1.217 5.508,1.39 37.25,1.166 32.328,-0.227 37.25,-0.46 37.25,-1.762 0,-1.302 -4.746,-1.523 -36,-1.677 -19.8,-0.098 -36.562,0.052 -37.25,0.333 m 77.205,10.417 c -0.374,0.606 -0.263,1.519 0.247,2.029 0.542,0.542 13.596,0.818 31.363,0.663 26.269,-0.229 30.435,-0.47 30.435,-1.765 0,-1.295 -4.193,-1.536 -30.682,-1.764 -21.524,-0.186 -30.885,0.064 -31.363,0.837 m -24.817,3.427 c 0.465,1.212 2.764,1.5 11.969,1.5 9.46,0 11.393,-0.254 11.393,-1.5 0,-1.25 -1.997,-1.5 -11.969,-1.5 -10.228,0 -11.885,0.218 -11.393,1.5 m -54.185,2.83 c -0.765,3.05 -0.168,11.242 0.797,10.92 0.412,-0.137 12,-0.25 25.75,-0.25 21.267,0 25,-0.218 25,-1.462 0,-1.26 -3.449,-1.376 -25,-0.841 l -25,0.621 v -4.659 -4.659 h 24.5 c 15.667,0 24.5,-0.361 24.5,-1 0,-0.64 -8.994,-1 -24.981,-1 h -24.981 l -0.585,2.33 m 79.214,6.337 c -0.367,0.366 -0.667,1.273 -0.667,2.014 0,1.107 5.577,1.3 31.237,1.083 28.832,-0.244 31.262,-0.399 31.573,-2.014 0.315,-1.636 -1.673,-1.75 -30.57,-1.75 -16.999,0 -31.207,0.3 -31.573,0.667 m -25.667,2.833 c 0,1.246 1.944,1.5 11.5,1.5 9.556,0 11.5,-0.254 11.5,-1.5 0,-1.246 -1.944,-1.5 -11.5,-1.5 -9.556,0 -11.5,0.254 -11.5,1.5 m 24,11 c 0,1.302 4.222,1.5 32,1.5 27.778,0 32,-0.198 32,-1.5 0,-1.302 -4.222,-1.5 -32,-1.5 -27.778,0 -32,0.198 -32,1.5 m -26,1 c 0,1.25 2,1.5 12,1.5 10,0 12,-0.25 12,-1.5 0,-1.25 -2,-1.5 -12,-1.5 -10,0 -12,0.25 -12,1.5 m -50,0.5 c 0,0.611 4.667,1 12,1 7.333,0 12,-0.389 12,-1 0,-0.611 -4.667,-1 -12,-1 -7.333,0 -12,0.389 -12,1 m 75.003,9.833 c -0.552,0.184 -1.003,0.977 -1.003,1.764 0,1.217 4.892,1.391 32.75,1.167 28.327,-0.228 32.75,-0.467 32.75,-1.764 0,-1.302 -4.194,-1.5 -31.747,-1.5 -17.461,0 -32.199,0.15 -32.75,0.333 m -73.641,1.667 c -0.317,0.825 -0.307,2.2 0.021,3.055 0.521,1.358 3.601,1.516 24.357,1.25 l 23.76,-0.305 0.316,-2.75 0.317,-2.75 h -24.098 c -20.498,0 -24.184,0.224 -24.673,1.5 m -3.347,8.25 c 0.009,4.813 0.362,8.206 0.784,7.54 0.487,-0.765 4.157,-1.316 9.991,-1.5 11.911,-0.375 12.141,-2.196 0.325,-2.576 -8.762,-0.282 -8.903,-0.326 -9.408,-2.965 -0.281,-1.473 -0.272,-4.156 0.022,-5.963 0.339,-2.092 0.122,-3.286 -0.598,-3.286 -0.756,0 -1.126,2.899 -1.116,8.75 m 22.985,4.25 c 0,1.893 0.667,2 12.5,2 11.833,0 12.5,-0.107 12.5,-2 0,-1.893 -0.667,-2 -12.5,-2 -11.833,0 -12.5,0.107 -12.5,2 m 54.68,-1.347 c -0.374,0.374 -0.68,1.28 -0.68,2.014 0,1.083 6.096,1.333 32.573,1.333 30.484,0 32.552,-0.112 32.237,-1.75 -0.311,-1.616 -2.756,-1.77 -31.893,-2.014 -17.356,-0.145 -31.862,0.043 -32.237,0.417 m -26.432,1.597 c 0.293,0.882 3.846,1.333 12.084,1.532 9.935,0.24 11.668,0.054 11.668,-1.25 0,-1.291 -1.898,-1.532 -12.083,-1.532 -9.222,0 -11.985,0.296 -11.669,1.25 m -49.998,10.412 c -3.61,1.457 -0.123,2.338 9.25,2.338 8.667,0 10.5,-0.262 10.5,-1.5 0,-1.231 -1.659,-1.486 -9.25,-1.421 -5.088,0.043 -9.812,0.306 -10.5,0.583 m 51,0 c -0.687,0.278 -1.25,1.142 -1.25,1.921 0,1.144 2.314,1.417 12,1.417 11.333,0 12,-0.111 12,-2 0,-1.881 -0.64,-1.995 -10.75,-1.921 -5.912,0.043 -11.312,0.306 -12,0.583 m 54,0.087 c -25.075,0.241 -29.25,0.493 -29.25,1.766 0,1.283 4.425,1.485 32.5,1.485 27.113,0 32.5,-0.231 32.5,-1.393 0,-1.575 -2.338,-2.723 -4.832,-2.373 -0.917,0.129 -14.831,0.361 -30.918,0.515 m -106.1,15.001 -0.15,10.25 h 10.083 c 7.621,0 9.983,-0.305 9.67,-1.25 -0.279,-0.841 -3.253,-1.345 -9.084,-1.539 l -8.669,-0.289 v -2.844 c 0,-3.509 2.159,-4.24 10.076,-3.412 3.709,0.387 5.887,0.203 6.345,-0.538 0.454,-0.735 4.853,-1.128 12.638,-1.128 9.948,0 11.941,-0.25 11.941,-1.5 0,-1.263 -2.253,-1.501 -14.25,-1.507 -7.838,-0.004 -17.264,-0.292 -20.947,-0.64 -6.249,-0.59 -6.724,-0.807 -7.1,-3.243 -0.222,-1.435 -0.471,2.003 -0.553,7.64 m 49.85,-2.25 c 0,1.253 2.056,1.5 12.5,1.5 10.444,0 12.5,-0.247 12.5,-1.5 0,-1.253 -2.056,-1.5 -12.5,-1.5 -10.444,0 -12.5,0.247 -12.5,1.5 m 28,2 c 0,1.302 4.222,1.5 32,1.5 27.778,0 32,-0.198 32,-1.5 0,-1.302 -4.222,-1.5 -32,-1.5 -27.778,0 -32,0.198 -32,1.5 m -27.333,8.167 c -0.367,0.366 -0.667,1.266 -0.667,2 0,1.04 2.75,1.333 12.5,1.333 11.833,0 12.5,-0.107 12.5,-2 0,-1.887 -0.667,-2 -11.833,-2 -6.509,0 -12.134,0.3 -12.5,0.667 m -28.405,1.583 c 0.574,1.672 22.298,1.59 23.979,-0.091 0.879,-0.879 -1.93,-1.159 -11.624,-1.159 -9.789,0 -12.683,0.293 -12.355,1.25 m 68.238,61.788 c -3.3,0.41 -32.389,0.794 -64.643,0.853 -51.78,0.096 -58.712,0.289 -59.233,1.647 -0.325,0.846 -0.023,1.755 0.671,2.022 0.693,0.266 30.197,0.361 65.564,0.212 62.333,-0.264 64.346,-0.331 65.722,-2.213 2.782,-3.805 2.637,-3.85 -8.081,-2.521 m 47.522,-0.288 -24.477,0.287 -6.023,6.28 c -10.904,11.372 -26.695,16.355 -55.022,17.362 -22.563,0.802 -36.37,-1.32 -66.873,-10.279 -6.531,-1.918 -12.099,-3.262 -12.374,-2.986 -1.406,1.406 1.453,3.577 10.873,8.258 30.933,15.369 57.181,21.774 88.874,21.684 27.876,-0.079 55.125,-5.83 75.989,-16.038 7.894,-3.862 10.794,-5.984 17.25,-12.625 5.224,-5.374 7.761,-8.753 7.761,-10.338 0,-2.227 -0.312,-2.342 -5.75,-2.124 -3.163,0.128 -16.765,0.361 -30.228,0.519"
     stroke="none"
     fill="black"
     fill-rule="evenodd"
     id="path2"
     style="fill:#c8ab37"
     inkscape:export-filename="C:\Users\hanke\Documents\pdf2md.png"
     inkscape:export-xdpi="96"
     inkscape:export-ydpi="96" />
  <text
     xml:space="preserve"
     style="font-style:normal;font-weight:normal;font-size:96px;line-height:1.25;font-family:sans-serif;fill:#000000;fill-opacity:1;stroke:none"
     x="454.83798"
     y="216.91895"
     id="text1549"><tspan
       sodipodi:role="line"
       x="454.83798"
       y="216.91895"
       id="tspan2277"
       style="font-style:normal;font-variant:normal;font-weight:normal;font-stretch:normal;font-size:192px;font-family:'Calisto MT';-inkscape-font-specification:'Calisto MT'">PDF2MD</tspan><tspan
       sodipodi:role="line"
       x="454.83798"
       y="372.20831"
       id="tspan25032"
       style="font-style:normal;font-variant:normal;font-weight:normal;font-stretch:normal;font-family:'Calisto MT';-inkscape-font-specification:'Calisto MT'">Convert PDF files to Markdown</tspan></text>
</svg>
